<?xml version="1.0" encoding="UTF-8" standalone="no"?><svg width="78" height="78" viewBox="0 0 78 78" fill="none" xmlns="http://www.w3.org/2000/svg">
<path d="M27 12H21C19.4087 12 17.8826 12.6321 16.7574 13.7574C15.6321 14.8826 15 16.4087 15 18V60C15 61.5913 15.6321 63.1174 16.7574 64.2426C17.8826 65.3679 19.4087 66 21 66H57C58.5913 66 60.1174 65.3679 61.2426 64.2426C62.3679 63.1174 63 61.5913 63 60V18C63 16.4087 62.3679 14.8826 61.2426 13.7574C60.1174 12.6321 58.5913 12 57 12H45M27 12V39L36 30L45 39V12M27 12H45" stroke="#242427" stroke-width="5.25" stroke-linecap="round" stroke-linejoin="round"/>
</svg>
