<?xml version="1.0" encoding="UTF-8" standalone="no"?><svg width="57" height="59" viewBox="0 0 57 59" fill="none" xmlns="http://www.w3.org/2000/svg">
<path d="M7.02083 0C5.15879 0 3.37302 0.739693 2.05635 2.05635C0.739693 3.37302 0 5.15879 0 7.02083V49.1458C0 51.0079 0.739693 52.7936 2.05635 54.1103C3.37302 55.427 5.15879 56.1667 7.02083 56.1667H27.5497C26.3452 54.9138 25.3258 53.4953 24.5224 51.9542H7.02083C6.27602 51.9542 5.56171 51.6583 5.03504 51.1316C4.50838 50.605 4.2125 49.8906 4.2125 49.1458H23.3457C22.9057 47.779 22.6286 46.3651 22.52 44.9333H4.2125V7.02083C4.2125 6.27602 4.50838 5.56171 5.03504 5.03504C5.56171 4.50838 6.27602 4.2125 7.02083 4.2125H39.3167C40.0615 4.2125 40.7758 4.50838 41.3025 5.03504C41.8291 5.56171 42.125 6.27602 42.125 7.02083V25.3284C43.5891 25.4426 44.9932 25.7178 46.3375 26.154V7.02083C46.3375 5.15879 45.5978 3.37302 44.2811 2.05635C42.9645 0.739693 41.1787 0 39.3167 0H7.02083ZM56.1667 43.5292C56.1667 39.4327 54.5393 35.504 51.6427 32.6073C48.746 29.7107 44.8173 28.0833 40.7208 28.0833C36.6243 28.0833 32.6956 29.7107 29.799 32.6073C26.9023 35.504 25.275 39.4327 25.275 43.5292C25.275 47.6256 26.9023 51.5544 29.799 54.451C32.6956 57.3477 36.6243 58.975 40.7208 58.975C44.8173 58.975 48.746 57.3477 51.6427 54.451C54.5393 51.5544 56.1667 47.6256 56.1667 43.5292ZM39.0751 36.7807L46.9553 41.9481C47.2006 42.1053 47.3925 42.3141 47.531 42.5743C47.6715 42.8289 47.7417 43.1079 47.7417 43.4112C47.742 43.7023 47.6726 43.9892 47.5395 44.2481C47.4109 44.5034 47.2196 44.7218 46.9834 44.8828L39.1004 50.2607C38.9639 50.3542 38.8144 50.4271 38.6567 50.477C38.2917 50.5938 37.8964 50.5708 37.5474 50.4124C37.3466 50.3175 37.1634 50.1893 37.0054 50.0333C36.8525 49.8683 36.729 49.6783 36.6403 49.4716C36.5516 49.261 36.5067 49.0345 36.5083 48.806V38.2523C36.5062 37.9142 36.6025 37.5828 36.7855 37.2986C36.9685 37.0143 37.2303 36.7895 37.539 36.6516C37.7837 36.5363 38.0544 36.4873 38.324 36.5094C38.5935 36.5316 38.8526 36.6242 39.0751 36.7779M8.425 11.2333C8.425 10.4885 8.72088 9.77421 9.24754 9.24754C9.77421 8.72088 10.4885 8.425 11.2333 8.425H33.7C34.4448 8.425 35.1591 8.72088 35.6858 9.24754C36.2125 9.77421 36.5083 10.4885 36.5083 11.2333V16.85C36.5083 17.5948 36.2125 18.3091 35.6858 18.8358C35.1591 19.3625 34.4448 19.6583 33.7 19.6583H11.2333C10.4885 19.6583 9.77421 19.3625 9.24754 18.8358C8.72088 18.3091 8.425 17.5948 8.425 16.85V11.2333ZM12.6375 15.4458H32.2958V12.6375H12.6375V15.4458Z" fill="#242427"/>
</svg>
